<svg id="svg" version="1.1" xmlns="http://www.w3.org/2000/svg" xmlns:xlink="http://www.w3.org/1999/xlink" width="400" height="409.04761904761904" viewBox="0, 0, 400,409.04761904761904"><g id="svgg"><path id="path0" d="M241.800 78.998 C 240.040 79.740,237.880 80.652,237.000 81.024 C 222.289 87.238,203.502 98.794,198.088 104.961 C 192.040 111.849,197.626 123.382,206.977 123.313 C 210.523 123.286,211.830 122.719,215.886 119.444 C 222.626 114.002,230.320 109.695,239.320 106.327 C 240.774 105.783,240.441 105.076,243.138 114.422 C 244.435 118.920,246.165 124.670,246.983 127.200 C 249.157 133.932,249.155 133.907,247.542 134.154 C 246.804 134.267,242.330 134.464,237.600 134.592 C 193.258 135.795,171.102 146.443,160.181 171.800 C 155.975 181.567,157.778 180.946,134.404 180.679 C 104.033 180.332,102.001 179.371,94.826 161.957 C 90.577 151.643,85.765 149.948,60.800 149.975 C 46.133 149.990,43.076 150.222,30.800 152.250 C 16.193 154.662,1.278 162.589,2.181 167.458 C 3.038 172.073,7.559 177.128,12.529 179.025 C 15.370 180.110,15.539 180.125,28.600 180.439 C 48.669 180.922,69.680 182.541,77.367 184.198 C 77.825 184.297,80.900 184.938,84.200 185.623 C 101.737 189.262,116.549 196.044,129.200 206.226 C 132.956 209.248,136.244 212.717,135.783 213.169 C 135.442 213.503,130.649 216.324,122.737 220.849 L 120.074 222.372 115.137 217.481 C 72.740 175.483,2.187 204.804,2.242 264.400 C 2.302 329.808,85.916 355.703,123.765 302.035 C 127.458 296.798,131.566 287.646,133.052 281.347 L 133.746 278.400 146.795 278.400 L 159.845 278.400 161.222 279.429 C 177.436 291.536,220.827 293.078,242.182 282.307 C 249.160 278.787,249.595 277.805,249.311 266.187 C 248.673 240.131,253.883 215.662,265.682 189.300 C 267.405 185.451,268.800 183.618,268.800 185.204 C 268.800 186.029,279.418 206.930,282.851 212.862 C 285.436 217.330,285.429 217.168,283.132 219.851 C 273.369 231.256,268.500 241.276,266.925 253.200 C 265.506 263.939,267.281 270.400,271.651 270.400 C 275.160 270.400,276.735 268.718,280.355 261.100 C 283.647 254.172,284.992 253.046,282.946 258.930 C 277.405 274.871,283.642 298.387,297.169 312.556 C 330.590 347.564,389.458 329.688,397.835 281.988 C 401.508 261.074,391.527 236.183,375.100 225.288 C 372.661 223.671,373.127 223.465,378.529 223.772 C 384.389 224.106,384.737 223.938,383.982 221.133 C 378.450 200.590,333.579 189.086,307.088 201.420 C 305.940 201.955,304.810 202.394,304.577 202.396 C 304.043 202.401,295.123 184.916,290.806 175.400 C 289.009 171.440,287.290 167.660,286.987 167.000 C 286.437 165.808,286.442 165.799,287.717 165.696 C 298.298 164.834,303.319 162.657,305.025 158.191 C 306.511 154.299,304.896 142.546,301.344 131.400 C 300.783 129.640,299.869 126.760,299.313 125.000 C 293.382 106.216,290.184 103.586,272.833 103.216 L 262.665 103.000 261.762 100.200 C 261.265 98.660,260.114 94.790,259.204 91.600 C 255.515 78.678,250.744 75.223,241.800 78.998 M78.335 228.153 C 84.878 229.871,95.252 235.753,93.944 237.004 C 93.492 237.436,81.822 244.239,75.200 247.931 C 70.704 250.437,62.856 255.020,61.446 255.962 C 60.592 256.533,59.431 257.307,58.866 257.683 C 54.731 260.435,54.736 270.379,58.875 274.511 C 62.668 278.298,63.167 278.369,86.297 278.386 L 105.593 278.400 104.579 281.095 C 94.019 309.149,52.825 312.957,36.178 287.419 C 20.138 262.810,34.671 231.498,64.200 227.046 C 67.140 226.603,74.681 227.194,78.335 228.153 M149.807 238.600 C 151.992 244.401,154.033 250.901,154.115 252.324 L 154.200 253.800 144.329 253.907 C 135.182 254.006,134.443 253.962,134.254 253.307 C 133.731 251.499,131.998 243.871,132.093 243.794 C 132.152 243.747,134.360 242.485,137.000 240.989 C 139.640 239.493,142.430 237.867,143.200 237.374 C 147.987 234.314,148.207 234.355,149.807 238.600 M348.174 240.603 C 379.923 248.852,382.785 293.070,352.382 305.608 C 324.388 317.151,295.383 286.072,309.025 259.150 C 310.281 256.673,310.077 256.577,313.830 261.400 C 327.860 279.426,334.283 285.350,339.800 285.350 C 350.479 285.350,355.032 273.166,347.437 264.913 C 338.133 254.801,327.687 241.281,329.100 241.178 C 329.265 241.166,330.660 240.822,332.200 240.413 C 336.565 239.255,343.293 239.335,348.174 240.603 " stroke="none" fill="#040404" fill-rule="evenodd"></path><path id="path1" d="M0.000 204.400 L 0.000 408.800 200.000 408.800 L 400.000 408.800 400.000 204.400 L 400.000 0.000 200.000 0.000 L 0.000 0.000 0.000 204.400 M251.319 78.323 C 255.517 80.180,257.089 82.603,259.411 90.799 C 260.128 93.329,261.209 97.065,261.814 99.100 L 262.913 102.800 271.802 102.800 C 289.494 102.800,293.368 105.579,298.853 122.200 C 309.994 155.962,308.525 164.609,291.500 165.491 C 289.077 165.616,287.200 165.886,287.200 166.110 C 287.200 167.267,302.569 199.145,304.161 201.290 C 304.638 201.932,304.897 201.885,307.917 200.611 C 320.418 195.339,334.885 194.489,351.600 198.043 C 354.790 198.721,358.120 199.596,359.000 199.988 C 359.880 200.379,361.320 200.927,362.200 201.205 C 371.734 204.219,382.751 213.924,384.388 220.751 C 385.243 224.315,384.862 224.567,379.054 224.271 L 374.200 224.024 375.200 224.833 C 381.598 230.009,386.442 235.155,389.596 240.128 C 416.938 283.244,381.325 338.065,330.808 330.622 C 298.163 325.812,274.582 292.692,281.860 261.874 C 283.195 256.224,282.988 256.249,280.376 262.054 C 273.319 277.734,263.485 271.564,266.386 253.277 C 268.398 240.588,273.207 230.757,282.877 219.564 L 284.808 217.329 281.726 211.764 C 280.031 208.704,276.261 201.441,273.347 195.623 L 268.050 185.047 266.596 188.223 C 264.424 192.969,260.235 203.416,259.228 206.600 C 258.741 208.140,258.181 209.760,257.983 210.200 C 257.786 210.640,256.917 213.610,256.052 216.800 C 251.189 234.747,249.903 243.985,249.758 262.000 C 249.699 269.370,249.640 275.750,249.626 276.177 C 249.539 278.821,241.484 283.745,233.517 286.025 C 209.321 292.951,176.384 290.451,162.173 280.610 L 159.746 278.929 154.231 278.652 C 146.774 278.278,134.000 278.757,134.000 279.411 C 134.000 282.607,128.891 294.762,125.010 300.800 C 117.108 313.094,102.568 324.391,89.993 328.006 C 84.054 329.714,82.930 329.968,78.400 330.629 C 24.793 338.449,-15.419 282.800,8.720 234.200 C 16.293 218.954,32.229 204.996,46.612 201.012 C 47.925 200.648,49.360 200.189,49.800 199.992 C 54.320 197.966,68.365 196.783,76.000 197.785 C 92.190 199.909,104.410 205.952,115.975 217.552 L 120.150 221.740 121.975 220.746 C 122.979 220.199,126.435 218.232,129.655 216.376 L 135.510 213.000 133.663 211.000 C 130.790 207.890,126.833 204.709,121.287 201.050 C 100.216 187.149,77.017 182.097,28.400 180.823 C 18.461 180.562,14.928 180.334,13.394 179.853 C 6.480 177.687,-0.126 168.849,2.398 165.145 C 9.274 155.055,31.338 149.301,62.600 149.445 C 83.415 149.540,90.933 151.853,94.080 159.130 C 94.525 160.158,95.274 161.900,95.745 163.000 C 102.641 179.124,104.756 180.059,134.855 180.302 L 153.910 180.455 155.383 179.161 C 156.880 177.847,158.944 174.182,160.440 170.185 C 167.740 150.673,188.589 138.419,219.600 135.414 C 221.030 135.275,223.460 134.979,225.000 134.756 C 226.540 134.532,232.330 134.226,237.867 134.075 C 243.403 133.924,248.058 133.675,248.211 133.522 C 248.455 133.279,246.254 125.714,244.541 120.905 C 244.209 119.973,243.410 117.273,242.766 114.905 C 240.936 108.183,240.526 106.793,240.313 106.580 C 240.087 106.354,232.307 109.628,228.400 111.594 C 224.423 113.594,215.327 119.856,214.862 120.913 C 213.883 123.140,206.165 124.490,202.788 123.024 C 193.597 119.036,192.504 108.179,200.670 101.973 C 201.951 100.999,203.090 100.107,203.200 99.991 C 203.453 99.724,208.418 96.172,210.800 94.554 C 213.015 93.050,220.166 88.737,221.800 87.920 C 222.460 87.590,225.340 86.141,228.200 84.699 C 231.060 83.258,234.570 81.606,236.000 81.029 C 237.430 80.452,238.951 79.780,239.380 79.537 C 243.368 77.270,247.898 76.810,251.319 78.323 M63.600 227.644 C 41.005 230.204,25.752 252.693,31.312 275.248 C 39.975 310.387,88.763 314.825,103.794 281.841 L 105.180 278.800 100.290 278.737 C 97.600 278.703,88.830 278.636,80.800 278.590 C 62.710 278.484,62.575 278.462,59.048 275.003 C 55.382 271.409,54.389 267.680,55.742 262.600 C 56.878 258.339,57.967 257.302,66.336 252.509 C 81.173 244.012,84.671 242.015,88.400 239.917 C 94.219 236.644,94.117 236.807,91.534 234.899 C 83.401 228.891,74.043 226.460,63.600 227.644 M146.980 235.571 C 146.771 235.775,145.520 236.559,144.200 237.313 C 142.880 238.068,139.669 239.900,137.065 241.385 C 132.889 243.767,132.359 244.187,132.584 244.943 C 132.724 245.414,133.210 247.330,133.664 249.200 C 134.118 251.070,134.553 252.825,134.632 253.100 C 134.780 253.616,154.000 253.881,154.000 253.367 C 154.000 251.165,148.393 235.200,147.620 235.200 C 147.477 235.200,147.189 235.367,146.980 235.571 M332.915 240.582 C 328.776 241.517,328.807 241.402,331.675 245.236 C 336.167 251.241,341.207 257.356,346.850 263.646 C 350.637 267.867,351.733 270.148,351.733 273.807 C 351.733 283.373,340.937 289.142,333.122 283.752 C 331.031 282.309,320.016 269.990,314.600 263.036 C 313.940 262.189,312.680 260.603,311.800 259.512 L 310.200 257.528 309.293 259.599 C 304.833 269.774,305.414 281.141,310.881 290.696 C 326.130 317.348,365.537 311.039,372.688 280.800 C 378.140 257.747,356.004 235.363,332.915 240.582 " stroke="none" fill="#f3f3f3" fill-rule="evenodd"></path><path id="path2" d="M245.900 77.482 C 246.395 77.578,247.205 77.578,247.700 77.482 C 248.195 77.387,247.790 77.309,246.800 77.309 C 245.810 77.309,245.405 77.387,245.900 77.482 M267.523 103.099 C 270.231 103.168,274.551 103.168,277.123 103.099 C 279.695 103.029,277.480 102.972,272.200 102.973 C 266.920 102.973,264.815 103.030,267.523 103.099 M297.829 120.000 C 297.976 120.550,298.264 121.270,298.467 121.600 C 298.725 122.017,298.757 121.895,298.571 121.200 C 298.424 120.650,298.136 119.930,297.933 119.600 C 297.675 119.183,297.643 119.305,297.829 120.000 M206.305 123.883 C 206.802 123.979,207.522 123.975,207.905 123.875 C 208.287 123.775,207.880 123.696,207.000 123.701 C 206.120 123.705,205.807 123.787,206.305 123.883 M234.711 134.293 C 235.651 134.378,237.091 134.377,237.911 134.291 C 238.730 134.205,237.960 134.136,236.200 134.137 C 234.440 134.139,233.770 134.209,234.711 134.293 M227.100 134.689 C 227.815 134.778,228.985 134.778,229.700 134.689 C 230.415 134.601,229.830 134.528,228.400 134.528 C 226.970 134.528,226.385 134.601,227.100 134.689 M305.693 149.600 C 305.693 150.370,305.775 150.685,305.876 150.300 C 305.976 149.915,305.976 149.285,305.876 148.900 C 305.775 148.515,305.693 148.830,305.693 149.600 M59.317 149.497 C 60.811 149.574,63.151 149.574,64.517 149.496 C 65.882 149.418,64.660 149.355,61.800 149.355 C 58.940 149.356,57.822 149.420,59.317 149.497 M49.505 149.883 C 50.002 149.979,50.722 149.975,51.105 149.875 C 51.487 149.775,51.080 149.696,50.200 149.701 C 49.320 149.705,49.007 149.787,49.505 149.883 M71.505 149.883 C 72.002 149.979,72.722 149.975,73.105 149.875 C 73.487 149.775,73.080 149.696,72.200 149.701 C 71.320 149.705,71.007 149.787,71.505 149.883 M43.105 150.283 C 43.602 150.379,44.322 150.375,44.705 150.275 C 45.087 150.175,44.680 150.096,43.800 150.101 C 42.920 150.105,42.607 150.187,43.105 150.283 M306.109 154.000 C 306.109 154.990,306.187 155.395,306.282 154.900 C 306.378 154.405,306.378 153.595,306.282 153.100 C 306.187 152.605,306.109 153.010,306.109 154.000 M169.785 155.300 L 167.800 157.400 169.900 155.415 C 171.055 154.323,172.000 153.378,172.000 153.315 C 172.000 153.017,171.629 153.349,169.785 155.300 M102.000 174.600 C 102.746 175.370,103.447 176.000,103.557 176.000 C 103.667 176.000,103.146 175.370,102.400 174.600 C 101.654 173.830,100.953 173.200,100.843 173.200 C 100.733 173.200,101.254 173.830,102.000 174.600 M104.400 176.579 C 104.400 176.689,104.940 177.059,105.600 177.400 C 106.260 177.741,106.800 177.931,106.800 177.821 C 106.800 177.711,106.260 177.341,105.600 177.000 C 104.940 176.659,104.400 176.469,104.400 176.579 M155.775 178.900 L 154.600 180.200 155.900 179.025 C 156.615 178.379,157.200 177.794,157.200 177.725 C 157.200 177.416,156.870 177.688,155.775 178.900 M130.500 180.699 C 133.525 180.767,138.475 180.767,141.500 180.699 C 144.525 180.631,142.050 180.575,136.000 180.575 C 129.950 180.575,127.475 180.631,130.500 180.699 M38.307 181.090 C 39.026 181.179,40.106 181.177,40.707 181.086 C 41.308 180.995,40.720 180.922,39.400 180.924 C 38.080 180.926,37.588 181.001,38.307 181.090 M45.300 181.491 C 46.125 181.578,47.475 181.578,48.300 181.491 C 49.125 181.405,48.450 181.334,46.800 181.334 C 45.150 181.334,44.475 181.405,45.300 181.491 M52.700 181.882 C 53.195 181.978,54.005 181.978,54.500 181.882 C 54.995 181.787,54.590 181.709,53.600 181.709 C 52.610 181.709,52.205 181.787,52.700 181.882 M61.700 182.676 C 62.085 182.776,62.715 182.776,63.100 182.676 C 63.485 182.575,63.170 182.493,62.400 182.493 C 61.630 182.493,61.315 182.575,61.700 182.676 M295.800 185.600 C 296.141 186.260,296.511 186.800,296.621 186.800 C 296.731 186.800,296.541 186.260,296.200 185.600 C 295.859 184.940,295.489 184.400,295.379 184.400 C 295.269 184.400,295.459 184.940,295.800 185.600 M337.700 196.276 C 338.085 196.376,338.715 196.376,339.100 196.276 C 339.485 196.175,339.170 196.093,338.400 196.093 C 337.630 196.093,337.315 196.175,337.700 196.276 M318.200 197.200 C 317.181 197.638,318.232 197.638,319.600 197.200 C 320.404 196.943,320.443 196.877,319.800 196.868 C 319.360 196.862,318.640 197.011,318.200 197.200 M67.900 197.493 C 68.835 197.577,70.365 197.577,71.300 197.493 C 72.235 197.409,71.470 197.340,69.600 197.340 C 67.730 197.340,66.965 197.409,67.900 197.493 M356.400 199.284 C 356.510 199.393,357.226 199.693,357.991 199.951 C 358.756 200.210,359.206 200.250,358.991 200.039 C 358.776 199.829,358.060 199.529,357.400 199.372 C 356.740 199.216,356.290 199.176,356.400 199.284 M276.600 202.400 C 276.941 203.060,277.311 203.600,277.421 203.600 C 277.531 203.600,277.341 203.060,277.000 202.400 C 276.659 201.740,276.289 201.200,276.179 201.200 C 276.069 201.200,276.259 201.740,276.600 202.400 M97.600 204.179 C 97.600 204.289,98.140 204.659,98.800 205.000 C 99.460 205.341,100.000 205.531,100.000 205.421 C 100.000 205.311,99.460 204.941,98.800 204.600 C 98.140 204.259,97.600 204.069,97.600 204.179 M378.000 211.400 C 379.417 212.830,380.667 214.000,380.777 214.000 C 380.887 214.000,379.817 212.830,378.400 211.400 C 376.983 209.970,375.733 208.800,375.623 208.800 C 375.513 208.800,376.583 209.970,378.000 211.400 M133.800 211.200 C 134.659 212.080,135.452 212.800,135.562 212.800 C 135.672 212.800,135.059 212.080,134.200 211.200 C 133.341 210.320,132.548 209.600,132.438 209.600 C 132.328 209.600,132.941 210.320,133.800 211.200 M114.600 216.400 C 115.683 217.500,116.660 218.400,116.770 218.400 C 116.880 218.400,116.083 217.500,115.000 216.400 C 113.917 215.300,112.940 214.400,112.830 214.400 C 112.720 214.400,113.517 215.300,114.600 216.400 M119.149 221.300 C 119.756 222.073,120.619 222.216,120.997 221.605 C 121.138 221.377,120.976 221.311,120.616 221.449 C 120.271 221.581,119.677 221.444,119.295 221.145 C 118.666 220.652,118.652 220.667,119.149 221.300 M374.000 223.951 C 374.000 224.144,374.315 224.549,374.700 224.851 C 375.327 225.343,375.345 225.330,374.879 224.733 C 374.437 224.169,374.468 224.038,375.079 223.880 C 375.648 223.732,375.610 223.683,374.900 223.646 C 374.405 223.621,374.000 223.758,374.000 223.951 M380.800 224.000 L 377.400 224.251 380.676 224.325 C 382.514 224.367,384.061 224.224,384.200 224.000 C 384.336 223.780,384.392 223.634,384.324 223.675 C 384.256 223.716,382.670 223.862,380.800 224.000 M64.500 227.476 C 64.885 227.576,65.515 227.576,65.900 227.476 C 66.285 227.375,65.970 227.293,65.200 227.293 C 64.430 227.293,64.115 227.375,64.500 227.476 M381.400 230.400 C 382.259 231.280,383.052 232.000,383.162 232.000 C 383.272 232.000,382.659 231.280,381.800 230.400 C 380.941 229.520,380.148 228.800,380.038 228.800 C 379.928 228.800,380.541 229.520,381.400 230.400 M41.385 238.100 L 39.400 240.200 41.500 238.215 C 42.655 237.123,43.600 236.178,43.600 236.115 C 43.600 235.817,43.229 236.149,41.385 238.100 M338.291 239.889 C 339.001 239.977,340.261 239.979,341.091 239.892 C 341.921 239.805,341.340 239.733,339.800 239.731 C 338.260 239.729,337.581 239.800,338.291 239.889 M250.493 243.200 C 250.493 243.970,250.575 244.285,250.676 243.900 C 250.776 243.515,250.776 242.885,250.676 242.500 C 250.575 242.115,250.493 242.430,250.493 243.200 M362.400 248.525 C 362.400 248.594,362.985 249.179,363.700 249.825 L 365.000 251.000 363.825 249.700 C 362.730 248.488,362.400 248.216,362.400 248.525 M249.693 251.200 C 249.693 251.970,249.775 252.285,249.876 251.900 C 249.976 251.515,249.976 250.885,249.876 250.500 C 249.775 250.115,249.693 250.430,249.693 251.200 M266.109 256.000 C 266.109 256.990,266.187 257.395,266.282 256.900 C 266.378 256.405,266.378 255.595,266.282 255.100 C 266.187 254.605,266.109 255.010,266.109 256.000 M1.720 260.400 C 1.720 261.610,1.795 262.105,1.887 261.500 C 1.978 260.895,1.978 259.905,1.887 259.300 C 1.795 258.695,1.720 259.190,1.720 260.400 M249.324 261.800 C 249.326 263.120,249.401 263.612,249.490 262.893 C 249.579 262.174,249.577 261.094,249.486 260.493 C 249.395 259.892,249.322 260.480,249.324 261.800 M345.600 262.600 C 346.346 263.370,347.047 264.000,347.157 264.000 C 347.267 264.000,346.746 263.370,346.000 262.600 C 345.254 261.830,344.553 261.200,344.443 261.200 C 344.333 261.200,344.854 261.830,345.600 262.600 M1.693 267.600 C 1.693 268.370,1.775 268.685,1.876 268.300 C 1.976 267.915,1.976 267.285,1.876 266.900 C 1.775 266.515,1.693 266.830,1.693 267.600 M398.953 271.800 C 398.953 274.440,399.018 275.468,399.097 274.084 C 399.175 272.701,399.174 270.541,399.095 269.284 C 399.016 268.028,398.952 269.160,398.953 271.800 M276.175 268.900 L 275.000 270.200 276.300 269.025 C 277.015 268.379,277.600 267.794,277.600 267.725 C 277.600 267.416,277.270 267.688,276.175 268.900 M30.093 269.600 C 30.093 270.370,30.175 270.685,30.276 270.300 C 30.376 269.915,30.376 269.285,30.276 268.900 C 30.175 268.515,30.093 268.830,30.093 269.600 M373.293 270.400 C 373.293 271.170,373.375 271.485,373.476 271.100 C 373.576 270.715,373.576 270.085,373.476 269.700 C 373.375 269.315,373.293 269.630,373.293 270.400 M280.540 272.800 C 280.540 274.670,280.609 275.435,280.693 274.500 C 280.777 273.565,280.777 272.035,280.693 271.100 C 280.609 270.165,280.540 270.930,280.540 272.800 M306.148 273.600 C 306.148 275.910,306.214 276.855,306.295 275.700 C 306.376 274.545,306.376 272.655,306.295 271.500 C 306.214 270.345,306.148 271.290,306.148 273.600 M249.714 273.400 C 249.717 274.500,249.795 274.903,249.887 274.295 C 249.979 273.686,249.977 272.786,249.882 272.295 C 249.787 271.803,249.711 272.300,249.714 273.400 M247.381 278.900 L 245.800 280.600 247.500 279.019 C 248.435 278.149,249.200 277.384,249.200 277.319 C 249.200 277.016,248.852 277.319,247.381 278.900 M78.716 278.697 C 80.099 278.775,82.259 278.774,83.516 278.695 C 84.772 278.616,83.640 278.552,81.000 278.553 C 78.360 278.553,77.332 278.618,78.716 278.697 M97.717 278.697 C 99.211 278.774,101.551 278.774,102.917 278.696 C 104.282 278.618,103.060 278.555,100.200 278.555 C 97.340 278.556,96.222 278.620,97.717 278.697 M136.316 278.697 C 137.699 278.775,139.859 278.774,141.116 278.695 C 142.372 278.616,141.240 278.552,138.600 278.553 C 135.960 278.553,134.932 278.618,136.316 278.697 M156.187 278.699 C 158.838 278.799,159.986 279.012,160.587 279.517 C 161.396 280.197,161.396 280.196,160.638 279.300 C 159.940 278.475,159.572 278.407,156.238 278.482 L 152.600 278.565 156.187 278.699 M330.200 281.200 C 331.283 282.300,332.260 283.200,332.370 283.200 C 332.480 283.200,331.683 282.300,330.600 281.200 C 329.517 280.100,328.540 279.200,328.430 279.200 C 328.320 279.200,329.117 280.100,330.200 281.200 M348.175 282.100 L 347.000 283.400 348.300 282.225 C 349.015 281.579,349.600 280.994,349.600 280.925 C 349.600 280.616,349.270 280.888,348.175 282.100 M190.905 289.487 C 191.514 289.579,192.414 289.577,192.905 289.482 C 193.397 289.387,192.900 289.311,191.800 289.314 C 190.700 289.317,190.297 289.395,190.905 289.487 M213.105 289.483 C 213.602 289.579,214.322 289.575,214.705 289.475 C 215.087 289.375,214.680 289.296,213.800 289.301 C 212.920 289.305,212.607 289.387,213.105 289.483 M197.300 289.891 C 198.125 289.978,199.475 289.978,200.300 289.891 C 201.125 289.805,200.450 289.734,198.800 289.734 C 197.150 289.734,196.475 289.805,197.300 289.891 M204.713 289.895 C 205.876 289.976,207.676 289.976,208.713 289.893 C 209.751 289.811,208.800 289.745,206.600 289.746 C 204.400 289.747,203.551 289.814,204.713 289.895 M41.183 293.300 C 42.841 295.066,43.200 295.384,43.200 295.083 C 43.200 295.019,42.345 294.164,41.300 293.183 L 39.400 291.400 41.183 293.300 M316.000 297.800 C 317.195 299.010,318.263 300.000,318.373 300.000 C 318.483 300.000,317.595 299.010,316.400 297.800 C 315.205 296.590,314.137 295.600,314.027 295.600 C 313.917 295.600,314.805 296.590,316.000 297.800 M364.175 296.900 L 363.000 298.200 364.300 297.025 C 365.512 295.930,365.784 295.600,365.475 295.600 C 365.406 295.600,364.821 296.185,364.175 296.900 M64.500 304.276 C 64.885 304.376,65.515 304.376,65.900 304.276 C 66.285 304.175,65.970 304.093,65.200 304.093 C 64.430 304.093,64.115 304.175,64.500 304.276 M71.700 304.276 C 72.085 304.376,72.715 304.376,73.100 304.276 C 73.485 304.175,73.170 304.093,72.400 304.093 C 71.630 304.093,71.315 304.175,71.700 304.276 M338.500 307.891 C 339.325 307.978,340.675 307.978,341.500 307.891 C 342.325 307.805,341.650 307.734,340.000 307.734 C 338.350 307.734,337.675 307.805,338.500 307.891 M381.785 313.700 L 379.800 315.800 381.900 313.815 C 383.851 311.971,384.183 311.600,383.885 311.600 C 383.822 311.600,382.877 312.545,381.785 313.700 M37.600 323.796 C 37.600 324.070,40.049 325.284,40.232 325.101 C 40.319 325.014,39.762 324.644,38.995 324.278 C 38.228 323.912,37.600 323.695,37.600 323.796 " stroke="none" fill="#939393" fill-rule="evenodd"></path><path id="path3" d="M198.575 104.100 L 197.400 105.400 198.700 104.225 C 199.415 103.579,200.000 102.994,200.000 102.925 C 200.000 102.616,199.670 102.888,198.575 104.100 M195.293 112.000 C 195.293 112.770,195.375 113.085,195.476 112.700 C 195.576 112.315,195.576 111.685,195.476 111.300 C 195.375 110.915,195.293 111.230,195.293 112.000 M197.600 118.925 C 197.600 118.994,198.185 119.579,198.900 120.225 L 200.200 121.400 199.025 120.100 C 197.930 118.888,197.600 118.616,197.600 118.925 M242.700 134.293 C 243.635 134.377,245.165 134.377,246.100 134.293 C 247.035 134.209,246.270 134.140,244.400 134.140 C 242.530 134.140,241.765 134.209,242.700 134.293 M232.500 134.687 C 233.105 134.778,234.095 134.778,234.700 134.687 C 235.305 134.595,234.810 134.520,233.600 134.520 C 232.390 134.520,231.895 134.595,232.500 134.687 M55.100 149.893 C 56.035 149.977,57.565 149.977,58.500 149.893 C 59.435 149.809,58.670 149.740,56.800 149.740 C 54.930 149.740,54.165 149.809,55.100 149.893 M64.112 149.895 C 65.164 149.977,66.784 149.976,67.712 149.892 C 68.640 149.808,67.780 149.741,65.800 149.742 C 63.820 149.743,63.060 149.812,64.112 149.895 M305.728 153.600 C 305.728 155.030,305.801 155.615,305.889 154.900 C 305.978 154.185,305.978 153.015,305.889 152.300 C 305.801 151.585,305.728 152.170,305.728 153.600 M171.978 153.500 L 170.600 155.000 172.100 153.622 C 172.925 152.863,173.600 152.188,173.600 152.122 C 173.600 151.816,173.262 152.104,171.978 153.500 M4.175 163.300 L 3.000 164.600 4.300 163.425 C 5.015 162.779,5.600 162.194,5.600 162.125 C 5.600 161.816,5.270 162.088,4.175 163.300 M100.800 173.725 C 100.800 173.794,101.385 174.379,102.100 175.025 L 103.400 176.200 102.225 174.900 C 101.130 173.688,100.800 173.416,100.800 173.725 M5.200 174.125 C 5.200 174.194,5.785 174.779,6.500 175.425 L 7.800 176.600 6.625 175.300 C 5.530 174.088,5.200 173.816,5.200 174.125 M27.700 180.696 C 28.965 180.775,31.035 180.775,32.300 180.696 C 33.565 180.616,32.530 180.551,30.000 180.551 C 27.470 180.551,26.435 180.616,27.700 180.696 M121.905 180.683 C 122.402 180.779,123.122 180.775,123.505 180.675 C 123.887 180.575,123.480 180.496,122.600 180.501 C 121.720 180.505,121.407 180.587,121.905 180.683 M148.512 180.695 C 149.564 180.777,151.184 180.776,152.112 180.692 C 153.040 180.608,152.180 180.541,150.200 180.542 C 148.220 180.543,147.460 180.612,148.512 180.695 M43.705 181.087 C 44.314 181.179,45.214 181.177,45.705 181.082 C 46.197 180.987,45.700 180.911,44.600 180.914 C 43.500 180.917,43.097 180.995,43.705 181.087 M51.300 181.476 C 51.685 181.576,52.315 181.576,52.700 181.476 C 53.085 181.375,52.770 181.293,52.000 181.293 C 51.230 181.293,50.915 181.375,51.300 181.476 M56.500 181.876 C 56.885 181.976,57.515 181.976,57.900 181.876 C 58.285 181.775,57.970 181.693,57.200 181.693 C 56.430 181.693,56.115 181.775,56.500 181.876 M60.100 182.276 C 60.485 182.376,61.115 182.376,61.500 182.276 C 61.885 182.175,61.570 182.093,60.800 182.093 C 60.030 182.093,59.715 182.175,60.100 182.276 M329.300 196.296 C 330.565 196.375,332.635 196.375,333.900 196.296 C 335.165 196.216,334.130 196.151,331.600 196.151 C 329.070 196.151,328.035 196.216,329.300 196.296 M339.105 196.683 C 339.602 196.779,340.322 196.775,340.705 196.675 C 341.087 196.575,340.680 196.496,339.800 196.501 C 338.920 196.505,338.607 196.587,339.105 196.683 M132.752 209.659 C 134.748 211.730,135.599 212.892,135.390 213.259 C 135.140 213.699,135.185 213.705,135.630 213.292 C 136.084 212.869,135.638 212.260,132.992 209.692 L 129.807 206.600 132.752 209.659 M115.200 217.400 C 116.617 218.830,117.867 220.000,117.977 220.000 C 118.087 220.000,117.017 218.830,115.600 217.400 C 114.183 215.970,112.933 214.800,112.823 214.800 C 112.713 214.800,113.783 215.970,115.200 217.400 M21.200 217.000 C 20.228 217.990,19.523 218.800,19.633 218.800 C 19.743 218.800,20.628 217.990,21.600 217.000 C 22.572 216.010,23.277 215.200,23.167 215.200 C 23.057 215.200,22.172 216.010,21.200 217.000 M377.300 223.876 C 377.685 223.976,378.315 223.976,378.700 223.876 C 379.085 223.775,378.770 223.693,378.000 223.693 C 377.230 223.693,376.915 223.775,377.300 223.876 M66.900 227.094 C 67.945 227.176,69.655 227.176,70.700 227.094 C 71.745 227.012,70.890 226.944,68.800 226.944 C 66.710 226.944,65.855 227.012,66.900 227.094 M381.000 230.400 C 382.083 231.500,383.060 232.400,383.170 232.400 C 383.280 232.400,382.483 231.500,381.400 230.400 C 380.317 229.300,379.340 228.400,379.230 228.400 C 379.120 228.400,379.917 229.300,381.000 230.400 M249.334 256.000 C 249.334 257.650,249.405 258.325,249.491 257.500 C 249.578 256.675,249.578 255.325,249.491 254.500 C 249.405 253.675,249.334 254.350,249.334 256.000 M139.323 253.899 C 142.141 253.968,146.641 253.968,149.323 253.899 C 152.005 253.830,149.700 253.773,144.200 253.773 C 138.700 253.774,136.505 253.830,139.323 253.899 M344.800 262.125 C 344.800 262.194,345.385 262.779,346.100 263.425 L 347.400 264.600 346.225 263.300 C 345.130 262.088,344.800 261.816,344.800 262.125 M29.728 265.600 C 29.728 267.030,29.801 267.615,29.889 266.900 C 29.978 266.185,29.978 265.015,29.889 264.300 C 29.801 263.585,29.728 264.170,29.728 265.600 M398.514 268.200 C 398.517 269.300,398.595 269.703,398.687 269.095 C 398.779 268.486,398.777 267.586,398.682 267.095 C 398.587 266.603,398.511 267.100,398.514 268.200 M249.320 268.800 C 249.320 270.010,249.395 270.505,249.487 269.900 C 249.578 269.295,249.578 268.305,249.487 267.700 C 249.395 267.095,249.320 267.590,249.320 268.800 M275.906 268.611 C 275.084 269.375,274.554 270.000,274.727 270.000 C 274.901 270.000,275.654 269.370,276.400 268.600 C 278.141 266.803,277.843 266.810,275.906 268.611 M280.920 269.600 C 280.920 270.810,280.995 271.305,281.087 270.700 C 281.178 270.095,281.178 269.105,281.087 268.500 C 280.995 267.895,280.920 268.390,280.920 269.600 M373.693 271.200 C 373.693 271.970,373.775 272.285,373.876 271.900 C 373.976 271.515,373.976 270.885,373.876 270.500 C 373.775 270.115,373.693 270.430,373.693 271.200 M305.734 273.600 C 305.734 275.250,305.805 275.925,305.891 275.100 C 305.978 274.275,305.978 272.925,305.891 272.100 C 305.805 271.275,305.734 271.950,305.734 273.600 M351.324 273.800 C 351.326 275.120,351.401 275.612,351.490 274.893 C 351.579 274.174,351.577 273.094,351.486 272.493 C 351.395 271.892,351.322 272.480,351.324 273.800 M280.920 275.200 C 280.920 276.410,280.995 276.905,281.087 276.300 C 281.178 275.695,281.178 274.705,281.087 274.100 C 280.995 273.495,280.920 273.990,280.920 275.200 M398.509 276.000 C 398.509 276.990,398.587 277.395,398.682 276.900 C 398.778 276.405,398.778 275.595,398.682 275.100 C 398.587 274.605,398.509 275.010,398.509 276.000 M331.600 282.200 C 332.346 282.970,333.047 283.600,333.157 283.600 C 333.267 283.600,332.746 282.970,332.000 282.200 C 331.254 281.430,330.553 280.800,330.443 280.800 C 330.333 280.800,330.854 281.430,331.600 282.200 M195.100 289.482 C 195.595 289.578,196.405 289.578,196.900 289.482 C 197.395 289.387,196.990 289.309,196.000 289.309 C 195.010 289.309,194.605 289.387,195.100 289.482 M208.700 289.482 C 209.195 289.578,210.005 289.578,210.500 289.482 C 210.995 289.387,210.590 289.309,209.600 289.309 C 208.610 289.309,208.205 289.387,208.700 289.482 M39.600 292.125 C 39.600 292.194,40.185 292.779,40.900 293.425 L 42.200 294.600 41.025 293.300 C 39.930 292.088,39.600 291.816,39.600 292.125 M316.200 298.400 C 317.059 299.280,317.852 300.000,317.962 300.000 C 318.072 300.000,317.459 299.280,316.600 298.400 C 315.741 297.520,314.948 296.800,314.838 296.800 C 314.728 296.800,315.341 297.520,316.200 298.400 M362.981 298.500 L 361.400 300.200 363.100 298.619 C 364.681 297.148,364.984 296.800,364.681 296.800 C 364.616 296.800,363.851 297.565,362.981 298.500 M65.305 304.687 C 65.914 304.779,66.814 304.777,67.305 304.682 C 67.797 304.587,67.300 304.511,66.200 304.514 C 65.100 304.517,64.697 304.595,65.305 304.687 M69.700 304.687 C 70.305 304.778,71.295 304.778,71.900 304.687 C 72.505 304.595,72.010 304.520,70.800 304.520 C 69.590 304.520,69.095 304.595,69.700 304.687 M381.188 313.900 L 378.600 316.600 381.300 314.012 C 382.785 312.588,384.000 311.373,384.000 311.312 C 384.000 311.017,383.593 311.392,381.188 313.900 M298.000 313.800 C 299.195 315.010,300.263 316.000,300.373 316.000 C 300.483 316.000,299.595 315.010,298.400 313.800 C 297.205 312.590,296.137 311.600,296.027 311.600 C 295.917 311.600,296.805 312.590,298.000 313.800 M23.600 313.725 C 23.600 313.794,24.185 314.379,24.900 315.025 L 26.200 316.200 25.025 314.900 C 23.930 313.688,23.600 313.416,23.600 313.725 " stroke="none" fill="#6c6c6c" fill-rule="evenodd"></path><path id="path4" d="M21.300 180.691 C 22.125 180.778,23.475 180.778,24.300 180.691 C 25.125 180.605,24.450 180.534,22.800 180.534 C 21.150 180.534,20.475 180.605,21.300 180.691 M266.124 259.800 C 266.126 261.120,266.201 261.612,266.290 260.893 C 266.379 260.174,266.377 259.094,266.286 258.493 C 266.195 257.892,266.122 258.480,266.124 259.800 M1.720 264.400 C 1.720 265.610,1.795 266.105,1.887 265.500 C 1.978 264.895,1.978 263.905,1.887 263.300 C 1.795 262.695,1.720 263.190,1.720 264.400 M373.693 273.600 C 373.693 274.370,373.775 274.685,373.876 274.300 C 373.976 273.915,373.976 273.285,373.876 272.900 C 373.775 272.515,373.693 272.830,373.693 273.600 M20.800 311.325 C 20.800 311.394,21.385 311.979,22.100 312.625 L 23.400 313.800 22.225 312.500 C 21.130 311.288,20.800 311.016,20.800 311.325 " stroke="none" fill="#747474" fill-rule="evenodd"></path></g></svg>