<?xml version="1.0" encoding="UTF-8" standalone="no"?>
<!DOCTYPE svg PUBLIC "-//W3C//DTD SVG 1.1//EN"
 "http://www.w3.org/Graphics/SVG/1.1/DTD/svg11.dtd">
<!-- Generated by graphviz version 13.0.0 (20250608.1624)
 -->
<!-- Title: dependency&#45;cruiser output Pages: 1 -->
<svg width="616pt" height="568pt"
 viewBox="0.00 0.00 616.00 568.00" xmlns="http://www.w3.org/2000/svg" xmlns:xlink="http://www.w3.org/1999/xlink">
<g id="graph0" class="graph" transform="scale(1 1) rotate(0) translate(4 564)">
<title>dependency&#45;cruiser output</title>
<polygon fill="white" stroke="none" points="-4,4 -4,-564 611.75,-564 611.75,4 -4,4"/>
<g id="clust1" class="cluster">
<title>cluster_src</title>
<path fill="#ffffff" stroke="black" stroke-width="2" d="M20,-8C20,-8 587.75,-8 587.75,-8 593.75,-8 599.75,-14 599.75,-20 599.75,-20 599.75,-540 599.75,-540 599.75,-546 593.75,-552 587.75,-552 587.75,-552 20,-552 20,-552 14,-552 8,-546 8,-540 8,-540 8,-20 8,-20 8,-14 14,-8 20,-8"/>
<text xml:space="preserve" text-anchor="middle" x="303.88" y="-539.45" font-family="Helvetica,sans-Serif" font-weight="bold" font-size="9.00">src</text>
</g>
<g id="clust2" class="cluster">
<title>cluster_src/data</title>
<path fill="#ffffff" stroke="black" stroke-width="2" d="M193.25,-155C193.25,-155 239.25,-155 239.25,-155 245.25,-155 251.25,-161 251.25,-167 251.25,-167 251.25,-195 251.25,-195 251.25,-201 245.25,-207 239.25,-207 239.25,-207 193.25,-207 193.25,-207 187.25,-207 181.25,-201 181.25,-195 181.25,-195 181.25,-167 181.25,-167 181.25,-161 187.25,-155 193.25,-155"/>
<text xml:space="preserve" text-anchor="middle" x="216.25" y="-194.45" font-family="Helvetica,sans-Serif" font-weight="bold" font-size="9.00">data</text>
</g>
<g id="clust3" class="cluster">
<title>cluster_src/ui</title>
<path fill="#ffffff" stroke="black" stroke-width="2" d="M271.25,-16C271.25,-16 579.75,-16 579.75,-16 585.75,-16 591.75,-22 591.75,-28 591.75,-28 591.75,-514 591.75,-514 591.75,-520 585.75,-526 579.75,-526 579.75,-526 271.25,-526 271.25,-526 265.25,-526 259.25,-520 259.25,-514 259.25,-514 259.25,-28 259.25,-28 259.25,-22 265.25,-16 271.25,-16"/>
<text xml:space="preserve" text-anchor="middle" x="425.5" y="-513.45" font-family="Helvetica,sans-Serif" font-weight="bold" font-size="9.00">ui</text>
</g>
<g id="clust4" class="cluster">
<title>cluster_src/ui/components</title>
<path fill="#ffffff" stroke="black" stroke-width="2" d="M374.25,-204C374.25,-204 571.75,-204 571.75,-204 577.75,-204 583.75,-210 583.75,-216 583.75,-216 583.75,-488 583.75,-488 583.75,-494 577.75,-500 571.75,-500 571.75,-500 374.25,-500 374.25,-500 368.25,-500 362.25,-494 362.25,-488 362.25,-488 362.25,-216 362.25,-216 362.25,-210 368.25,-204 374.25,-204"/>
<text xml:space="preserve" text-anchor="middle" x="473" y="-487.45" font-family="Helvetica,sans-Serif" font-weight="bold" font-size="9.00">components</text>
</g>
<g id="clust5" class="cluster">
<title>cluster_src/ui/components/atomics</title>
<path fill="#ffffff" stroke="black" stroke-width="2" d="M480,-212C480,-212 563.75,-212 563.75,-212 569.75,-212 575.75,-218 575.75,-224 575.75,-224 575.75,-462 575.75,-462 575.75,-468 569.75,-474 563.75,-474 563.75,-474 480,-474 480,-474 474,-474 468,-468 468,-462 468,-462 468,-224 468,-224 468,-218 474,-212 480,-212"/>
<text xml:space="preserve" text-anchor="middle" x="521.88" y="-461.45" font-family="Helvetica,sans-Serif" font-weight="bold" font-size="9.00">atomics</text>
</g>
<g id="clust6" class="cluster">
<title>cluster_src/ui/components/composites</title>
<path fill="#ffffff" stroke="black" stroke-width="2" d="M382.25,-212C382.25,-212 448,-212 448,-212 454,-212 460,-218 460,-224 460,-224 460,-432 460,-432 460,-438 454,-444 448,-444 448,-444 382.25,-444 382.25,-444 376.25,-444 370.25,-438 370.25,-432 370.25,-432 370.25,-224 370.25,-224 370.25,-218 376.25,-212 382.25,-212"/>
<text xml:space="preserve" text-anchor="middle" x="415.12" y="-431.45" font-family="Helvetica,sans-Serif" font-weight="bold" font-size="9.00">composites</text>
</g>
<g id="clust7" class="cluster">
<title>cluster_src/ui/pages</title>
<path fill="#ffffff" stroke="black" stroke-width="2" d="M279.25,-24C279.25,-24 438.12,-24 438.12,-24 444.12,-24 450.12,-30 450.12,-36 450.12,-36 450.12,-184 450.12,-184 450.12,-190 444.12,-196 438.12,-196 438.12,-196 279.25,-196 279.25,-196 273.25,-196 267.25,-190 267.25,-184 267.25,-184 267.25,-36 267.25,-36 267.25,-30 273.25,-24 279.25,-24"/>
<text xml:space="preserve" text-anchor="middle" x="358.69" y="-183.45" font-family="Helvetica,sans-Serif" font-weight="bold" font-size="9.00">pages</text>
</g>
<!-- src/App.js -->
<g id="node1" class="node">
<title>src/App.js</title>
<g id="a_node1"><a xlink:href="src/App.js" xlink:title="App.js">
<path fill="#ffffcc" stroke="black" d="M149.21,-387.88C149.21,-387.88 107.04,-387.88 107.04,-387.88 104.08,-387.88 101.12,-384.92 101.12,-381.96 101.12,-381.96 101.12,-376.04 101.12,-376.04 101.12,-373.08 104.08,-370.12 107.04,-370.12 107.04,-370.12 149.21,-370.12 149.21,-370.12 152.17,-370.12 155.12,-373.08 155.12,-376.04 155.12,-376.04 155.12,-381.96 155.12,-381.96 155.12,-384.92 152.17,-387.88 149.21,-387.88"/>
<text xml:space="preserve" text-anchor="start" x="115.38" y="-375.32" font-family="Helvetica,sans-Serif" font-size="9.00">App.js</text>
</a>
</g>
</g>
<!-- src/data/data.js -->
<g id="node2" class="node">
<title>src/data/data.js</title>
<g id="a_node2"><a xlink:href="src/data/data.js" xlink:title="data.js">
<path fill="#ffffcc" stroke="black" d="M237.33,-180.88C237.33,-180.88 195.17,-180.88 195.17,-180.88 192.21,-180.88 189.25,-177.92 189.25,-174.96 189.25,-174.96 189.25,-169.04 189.25,-169.04 189.25,-166.08 192.21,-163.12 195.17,-163.12 195.17,-163.12 237.33,-163.12 237.33,-163.12 240.29,-163.12 243.25,-166.08 243.25,-169.04 243.25,-169.04 243.25,-174.96 243.25,-174.96 243.25,-177.92 240.29,-180.88 237.33,-180.88"/>
<text xml:space="preserve" text-anchor="start" x="202.75" y="-168.32" font-family="Helvetica,sans-Serif" font-size="9.00">data.js</text>
</a>
</g>
</g>
<!-- src/App.js&#45;&gt;src/data/data.js -->
<g id="edge1" class="edge">
<title>src/App.js&#45;&gt;src/data/data.js</title>
<path fill="none" stroke="#000000" stroke-width="2" stroke-opacity="0.200000" d="M128.84,-369.95C128.4,-339.67 131.02,-240.67 181.25,-185 181.53,-184.7 181.81,-184.4 182.1,-184.11"/>
<polygon fill="#000000" fill-opacity="0.200000" stroke="#000000" stroke-width="2" stroke-opacity="0.200000" points="183.06,-186.01 186.65,-180.76 180.57,-182.62 183.06,-186.01"/>
</g>
<!-- src/ui/components/atomics/BackgroundGrid.js -->
<g id="node3" class="node">
<title>src/ui/components/atomics/BackgroundGrid.js</title>
<g id="a_node3"><a xlink:href="src/ui/components/atomics/BackgroundGrid.js" xlink:title="BackgroundGrid.js">
<path fill="#ffffcc" stroke="black" d="M561.83,-447.88C561.83,-447.88 481.92,-447.88 481.92,-447.88 478.96,-447.88 476,-444.92 476,-441.96 476,-441.96 476,-436.04 476,-436.04 476,-433.08 478.96,-430.12 481.92,-430.12 481.92,-430.12 561.83,-430.12 561.83,-430.12 564.79,-430.12 567.75,-433.08 567.75,-436.04 567.75,-436.04 567.75,-441.96 567.75,-441.96 567.75,-444.92 564.79,-447.88 561.83,-447.88"/>
<text xml:space="preserve" text-anchor="start" x="484" y="-435.32" font-family="Helvetica,sans-Serif" font-size="9.00">BackgroundGrid.js</text>
</a>
</g>
</g>
<!-- src/App.js&#45;&gt;src/ui/components/atomics/BackgroundGrid.js -->
<g id="edge2" class="edge">
<title>src/App.js&#45;&gt;src/ui/components/atomics/BackgroundGrid.js</title>
<path fill="none" stroke="#000000" stroke-width="2" stroke-opacity="0.200000" d="M155.59,-387.75C207.59,-404.77 321.56,-441.19 362.25,-447 405.26,-453.14 416.65,-449.84 460,-447 462.23,-446.85 464.51,-446.68 466.81,-446.48"/>
<polygon fill="#000000" fill-opacity="0.200000" stroke="#000000" stroke-width="2" stroke-opacity="0.200000" points="466.95,-448.57 472.72,-445.9 466.54,-444.39 466.95,-448.57"/>
</g>
<!-- src/ui/components/composites/BotNav.js -->
<g id="node4" class="node">
<title>src/ui/components/composites/BotNav.js</title>
<g id="a_node4"><a xlink:href="src/ui/components/composites/BotNav.js" xlink:title="BotNav.js">
<path fill="#ffffcc" stroke="black" d="M436.71,-357.88C436.71,-357.88 393.54,-357.88 393.54,-357.88 390.58,-357.88 387.62,-354.92 387.62,-351.96 387.62,-351.96 387.62,-346.04 387.62,-346.04 387.62,-343.08 390.58,-340.12 393.54,-340.12 393.54,-340.12 436.71,-340.12 436.71,-340.12 439.67,-340.12 442.62,-343.08 442.62,-346.04 442.62,-346.04 442.62,-351.96 442.62,-351.96 442.62,-354.92 439.67,-357.88 436.71,-357.88"/>
<text xml:space="preserve" text-anchor="start" x="395.62" y="-345.32" font-family="Helvetica,sans-Serif" font-size="9.00">BotNav.js</text>
</a>
</g>
</g>
<!-- src/App.js&#45;&gt;src/ui/components/composites/BotNav.js -->
<g id="edge3" class="edge">
<title>src/App.js&#45;&gt;src/ui/components/composites/BotNav.js</title>
<path fill="none" stroke="#000000" stroke-width="2" stroke-opacity="0.200000" d="M155.43,-376.23C206.83,-370.82 320.66,-358.84 378.66,-352.73"/>
<polygon fill="#000000" fill-opacity="0.200000" stroke="#000000" stroke-width="2" stroke-opacity="0.200000" points="378.72,-354.84 384.46,-352.12 378.28,-350.66 378.72,-354.84"/>
</g>
<!-- src/ui/components/composites/Main.js -->
<g id="node5" class="node">
<title>src/ui/components/composites/Main.js</title>
<g id="a_node5"><a xlink:href="src/ui/components/composites/Main.js" xlink:title="Main.js">
<path fill="#ffffcc" stroke="black" d="M436.21,-387.88C436.21,-387.88 394.04,-387.88 394.04,-387.88 391.08,-387.88 388.12,-384.92 388.12,-381.96 388.12,-381.96 388.12,-376.04 388.12,-376.04 388.12,-373.08 391.08,-370.12 394.04,-370.12 394.04,-370.12 436.21,-370.12 436.21,-370.12 439.17,-370.12 442.12,-373.08 442.12,-376.04 442.12,-376.04 442.12,-381.96 442.12,-381.96 442.12,-384.92 439.17,-387.88 436.21,-387.88"/>
<text xml:space="preserve" text-anchor="start" x="400.5" y="-375.32" font-family="Helvetica,sans-Serif" font-size="9.00">Main.js</text>
</a>
</g>
</g>
<!-- src/App.js&#45;&gt;src/ui/components/composites/Main.js -->
<g id="edge4" class="edge">
<title>src/App.js&#45;&gt;src/ui/components/composites/Main.js</title>
<path fill="none" stroke="#000000" stroke-width="2" stroke-opacity="0.200000" d="M155.43,-379C206.96,-379 321.24,-379 379.1,-379"/>
<polygon fill="#000000" fill-opacity="0.200000" stroke="#000000" stroke-width="2" stroke-opacity="0.200000" points="378.86,-381.1 384.86,-379 378.86,-376.9 378.86,-381.1"/>
</g>
<!-- src/ui/components/composites/TopNav.js -->
<g id="node6" class="node">
<title>src/ui/components/composites/TopNav.js</title>
<g id="a_node6"><a xlink:href="src/ui/components/composites/TopNav.js" xlink:title="TopNav.js">
<path fill="#ffffcc" stroke="black" d="M437.46,-417.88C437.46,-417.88 392.79,-417.88 392.79,-417.88 389.83,-417.88 386.88,-414.92 386.88,-411.96 386.88,-411.96 386.88,-406.04 386.88,-406.04 386.88,-403.08 389.83,-400.12 392.79,-400.12 392.79,-400.12 437.46,-400.12 437.46,-400.12 440.42,-400.12 443.38,-403.08 443.38,-406.04 443.38,-406.04 443.38,-411.96 443.38,-411.96 443.38,-414.92 440.42,-417.88 437.46,-417.88"/>
<text xml:space="preserve" text-anchor="start" x="394.88" y="-405.32" font-family="Helvetica,sans-Serif" font-size="9.00">TopNav.js</text>
</a>
</g>
</g>
<!-- src/App.js&#45;&gt;src/ui/components/composites/TopNav.js -->
<g id="edge5" class="edge">
<title>src/App.js&#45;&gt;src/ui/components/composites/TopNav.js</title>
<path fill="none" stroke="#000000" stroke-width="2" stroke-opacity="0.200000" d="M155.43,-381.77C206.57,-387.15 319.5,-399.04 377.77,-405.17"/>
<polygon fill="#000000" fill-opacity="0.200000" stroke="#000000" stroke-width="2" stroke-opacity="0.200000" points="377.44,-407.25 383.63,-405.79 377.88,-403.07 377.44,-407.25"/>
</g>
<!-- src/ui/pages/About.js -->
<g id="node7" class="node">
<title>src/ui/pages/About.js</title>
<g id="a_node7"><a xlink:href="src/ui/pages/About.js" xlink:title="About.js">
<path fill="#ffffcc" stroke="black" d="M335.83,-139.88C335.83,-139.88 293.67,-139.88 293.67,-139.88 290.71,-139.88 287.75,-136.92 287.75,-133.96 287.75,-133.96 287.75,-128.04 287.75,-128.04 287.75,-125.08 290.71,-122.12 293.67,-122.12 293.67,-122.12 335.83,-122.12 335.83,-122.12 338.79,-122.12 341.75,-125.08 341.75,-128.04 341.75,-128.04 341.75,-133.96 341.75,-133.96 341.75,-136.92 338.79,-139.88 335.83,-139.88"/>
<text xml:space="preserve" text-anchor="start" x="298.25" y="-127.33" font-family="Helvetica,sans-Serif" font-size="9.00">About.js</text>
</a>
</g>
</g>
<!-- src/data/data.js&#45;&gt;src/ui/pages/About.js -->
<g id="edge6" class="edge">
<title>src/data/data.js&#45;&gt;src/ui/pages/About.js</title>
<path fill="none" stroke="#000000" stroke-width="2" stroke-opacity="0.200000" d="M229.96,-162.8C238.03,-157.3 248.87,-150.53 259.25,-146 265.51,-143.27 272.4,-140.91 279.1,-138.93"/>
<polygon fill="#000000" fill-opacity="0.200000" stroke="#000000" stroke-width="2" stroke-opacity="0.200000" points="279.31,-141.05 284.53,-137.43 278.19,-137.01 279.31,-141.05"/>
</g>
<!-- src/ui/pages/Home.js -->
<g id="node8" class="node">
<title>src/ui/pages/Home.js</title>
<g id="a_node8"><a xlink:href="src/ui/pages/Home.js" xlink:title="Home.js">
<path fill="#ffffcc" stroke="black" d="M335.83,-169.88C335.83,-169.88 293.67,-169.88 293.67,-169.88 290.71,-169.88 287.75,-166.92 287.75,-163.96 287.75,-163.96 287.75,-158.04 287.75,-158.04 287.75,-155.08 290.71,-152.12 293.67,-152.12 293.67,-152.12 335.83,-152.12 335.83,-152.12 338.79,-152.12 341.75,-155.08 341.75,-158.04 341.75,-158.04 341.75,-163.96 341.75,-163.96 341.75,-166.92 338.79,-169.88 335.83,-169.88"/>
<text xml:space="preserve" text-anchor="start" x="297.88" y="-157.32" font-family="Helvetica,sans-Serif" font-size="9.00">Home.js</text>
</a>
</g>
</g>
<!-- src/data/data.js&#45;&gt;src/ui/pages/Home.js -->
<g id="edge7" class="edge">
<title>src/data/data.js&#45;&gt;src/ui/pages/Home.js</title>
<g id="a_edge7"><a xlink:title="no&#45;circular">
<path fill="none" stroke="orange" stroke-width="2" d="M243.62,-168.99C251.49,-168.1 260.35,-167.09 269.05,-166.1"/>
<polygon fill="orange" stroke="orange" stroke-width="2" points="278.68,-167.11 284.41,-164.35 278.21,-162.94 278.68,-167.11"/>
<polyline fill="none" stroke="orange" stroke-width="2" points="277.45,-165.14 274.47,-165.48"/>
<ellipse fill="none" stroke="orange" stroke-width="2" cx="271.09" cy="-165.86" rx="2.4" ry="2.4"/>
</a>
</g>
<text xml:space="preserve" text-anchor="middle" x="287.12" y="-167.71" font-family="Helvetica,sans-Serif" font-size="9.00" fill="orange">no&#45;circular</text>
</g>
<!-- src/ui/pages/Login.js -->
<g id="node9" class="node">
<title>src/ui/pages/Login.js</title>
<g id="a_node9"><a xlink:href="src/ui/pages/Login.js" xlink:title="Login.js">
<path fill="#ffffcc" stroke="black" d="M335.83,-79.88C335.83,-79.88 293.67,-79.88 293.67,-79.88 290.71,-79.88 287.75,-76.92 287.75,-73.96 287.75,-73.96 287.75,-68.04 287.75,-68.04 287.75,-65.08 290.71,-62.12 293.67,-62.12 293.67,-62.12 335.83,-62.12 335.83,-62.12 338.79,-62.12 341.75,-65.08 341.75,-68.04 341.75,-68.04 341.75,-73.96 341.75,-73.96 341.75,-76.92 338.79,-79.88 335.83,-79.88"/>
<text xml:space="preserve" text-anchor="start" x="298.62" y="-67.33" font-family="Helvetica,sans-Serif" font-size="9.00">Login.js</text>
</a>
</g>
</g>
<!-- src/data/data.js&#45;&gt;src/ui/pages/Login.js -->
<g id="edge8" class="edge">
<title>src/data/data.js&#45;&gt;src/ui/pages/Login.js</title>
<path fill="none" stroke="#000000" stroke-width="2" stroke-opacity="0.200000" d="M219.14,-162.66C223.23,-144.96 234.57,-106.48 259.25,-86 264.95,-81.27 272.03,-78.03 279.17,-75.8"/>
<polygon fill="#000000" fill-opacity="0.200000" stroke="#000000" stroke-width="2" stroke-opacity="0.200000" points="279.3,-77.94 284.58,-74.39 278.25,-73.87 279.3,-77.94"/>
</g>
<!-- src/ui/pages/Menu.js -->
<g id="node10" class="node">
<title>src/ui/pages/Menu.js</title>
<g id="a_node10"><a xlink:href="src/ui/pages/Menu.js" xlink:title="Menu.js">
<path fill="#ffffcc" stroke="black" d="M436.21,-169.88C436.21,-169.88 394.04,-169.88 394.04,-169.88 391.08,-169.88 388.12,-166.92 388.12,-163.96 388.12,-163.96 388.12,-158.04 388.12,-158.04 388.12,-155.08 391.08,-152.12 394.04,-152.12 394.04,-152.12 436.21,-152.12 436.21,-152.12 439.17,-152.12 442.12,-155.08 442.12,-158.04 442.12,-158.04 442.12,-163.96 442.12,-163.96 442.12,-166.92 439.17,-169.88 436.21,-169.88"/>
<text xml:space="preserve" text-anchor="start" x="399" y="-157.32" font-family="Helvetica,sans-Serif" font-size="9.00">Menu.js</text>
</a>
</g>
</g>
<!-- src/data/data.js&#45;&gt;src/ui/pages/Menu.js -->
<g id="edge9" class="edge">
<title>src/data/data.js&#45;&gt;src/ui/pages/Menu.js</title>
<g id="a_edge9"><a xlink:title="no&#45;circular">
<path fill="none" stroke="orange" stroke-width="2" d="M243.44,-174.88C248.67,-175.35 254.13,-175.76 259.25,-176 301.42,-178 312.35,-181.17 354.25,-176 359.31,-175.38 364.56,-174.47 369.75,-173.4"/>
<polygon fill="orange" stroke="orange" stroke-width="2" points="379.57,-173.21 384.92,-169.77 378.59,-169.12 379.57,-173.21"/>
<polyline fill="none" stroke="orange" stroke-width="2" points="378.11,-171.4 375.19,-172.09"/>
<ellipse fill="none" stroke="orange" stroke-width="2" cx="371.89" cy="-172.89" rx="2.4" ry="2.4"/>
</a>
</g>
<text xml:space="preserve" text-anchor="middle" x="293.87" y="-180.01" font-family="Helvetica,sans-Serif" font-size="9.00" fill="orange">no&#45;circular</text>
</g>
<!-- src/ui/pages/OrderOnline.js -->
<g id="node11" class="node">
<title>src/ui/pages/OrderOnline.js</title>
<g id="a_node11"><a xlink:href="src/ui/pages/OrderOnline.js" xlink:title="OrderOnline.js">
<path fill="#ffffcc" stroke="black" d="M346.46,-109.88C346.46,-109.88 283.04,-109.88 283.04,-109.88 280.08,-109.88 277.12,-106.92 277.12,-103.96 277.12,-103.96 277.12,-98.04 277.12,-98.04 277.12,-95.08 280.08,-92.12 283.04,-92.12 283.04,-92.12 346.46,-92.12 346.46,-92.12 349.42,-92.12 352.38,-95.08 352.38,-98.04 352.38,-98.04 352.38,-103.96 352.38,-103.96 352.38,-106.92 349.42,-109.88 346.46,-109.88"/>
<text xml:space="preserve" text-anchor="start" x="285.12" y="-97.33" font-family="Helvetica,sans-Serif" font-size="9.00">OrderOnline.js</text>
</a>
</g>
</g>
<!-- src/data/data.js&#45;&gt;src/ui/pages/OrderOnline.js -->
<g id="edge10" class="edge">
<title>src/data/data.js&#45;&gt;src/ui/pages/OrderOnline.js</title>
<g id="a_edge10"><a xlink:title="no&#45;circular">
<path fill="none" stroke="orange" stroke-width="2" d="M221.59,-162.96C228.05,-150.49 241.37,-128.18 259.25,-116 259.5,-115.83 259.75,-115.67 260,-115.5"/>
<polygon fill="orange" stroke="orange" stroke-width="2" points="269.54,-113.34 274.07,-108.88 267.75,-109.53 269.54,-113.34"/>
<polyline fill="none" stroke="orange" stroke-width="2" points="267.74,-111.86 265.02,-113.14"/>
<ellipse fill="none" stroke="orange" stroke-width="2" cx="261.95" cy="-114.58" rx="2.4" ry="2.4"/>
</a>
</g>
<text xml:space="preserve" text-anchor="middle" x="221.8" y="-121.62" font-family="Helvetica,sans-Serif" font-size="9.00" fill="orange">no&#45;circular</text>
</g>
<!-- src/ui/pages/Reservations.js -->
<g id="node12" class="node">
<title>src/ui/pages/Reservations.js</title>
<g id="a_node12"><a xlink:href="src/ui/pages/Reservations.js" xlink:title="Reservations.js">
<path fill="#ffffcc" stroke="black" d="M348.33,-49.88C348.33,-49.88 281.17,-49.88 281.17,-49.88 278.21,-49.88 275.25,-46.92 275.25,-43.96 275.25,-43.96 275.25,-38.04 275.25,-38.04 275.25,-35.08 278.21,-32.12 281.17,-32.12 281.17,-32.12 348.33,-32.12 348.33,-32.12 351.29,-32.12 354.25,-35.08 354.25,-38.04 354.25,-38.04 354.25,-43.96 354.25,-43.96 354.25,-46.92 351.29,-49.88 348.33,-49.88"/>
<text xml:space="preserve" text-anchor="start" x="283.25" y="-37.33" font-family="Helvetica,sans-Serif" font-size="9.00">Reservations.js</text>
</a>
</g>
</g>
<!-- src/data/data.js&#45;&gt;src/ui/pages/Reservations.js -->
<g id="edge11" class="edge">
<title>src/data/data.js&#45;&gt;src/ui/pages/Reservations.js</title>
<g id="a_edge11"><a xlink:title="no&#45;circular">
<path fill="none" stroke="orange" stroke-width="2" d="M218.11,-162.91C220.44,-141.74 228.89,-90.06 259.25,-62 260.88,-60.5 262.64,-59.14 264.51,-57.92"/>
<polygon fill="orange" stroke="orange" stroke-width="2" points="274.1,-55.94 278.72,-51.57 272.39,-52.1 274.1,-55.94"/>
<polyline fill="none" stroke="orange" stroke-width="2" points="272.33,-54.43 269.59,-55.65"/>
<ellipse fill="none" stroke="orange" stroke-width="2" cx="266.48" cy="-57.03" rx="2.4" ry="2.4"/>
</a>
</g>
<text xml:space="preserve" text-anchor="middle" x="212.14" y="-100.98" font-family="Helvetica,sans-Serif" font-size="9.00" fill="orange">no&#45;circular</text>
</g>
<!-- src/ui/components/atomics/VerticalLinks.js -->
<g id="node22" class="node">
<title>src/ui/components/atomics/VerticalLinks.js</title>
<g id="a_node22"><a xlink:href="src/ui/components/atomics/VerticalLinks.js" xlink:title="VerticalLinks.js">
<path fill="#ffffcc" stroke="black" d="M554.33,-417.88C554.33,-417.88 489.42,-417.88 489.42,-417.88 486.46,-417.88 483.5,-414.92 483.5,-411.96 483.5,-411.96 483.5,-406.04 483.5,-406.04 483.5,-403.08 486.46,-400.12 489.42,-400.12 489.42,-400.12 554.33,-400.12 554.33,-400.12 557.29,-400.12 560.25,-403.08 560.25,-406.04 560.25,-406.04 560.25,-411.96 560.25,-411.96 560.25,-414.92 557.29,-417.88 554.33,-417.88"/>
<text xml:space="preserve" text-anchor="start" x="491.5" y="-405.32" font-family="Helvetica,sans-Serif" font-size="9.00">VerticalLinks.js</text>
</a>
</g>
</g>
<!-- src/ui/components/composites/BotNav.js&#45;&gt;src/ui/components/atomics/VerticalLinks.js -->
<g id="edge15" class="edge">
<title>src/ui/components/composites/BotNav.js&#45;&gt;src/ui/components/atomics/VerticalLinks.js</title>
<path fill="none" stroke="#000000" stroke-width="2" stroke-opacity="0.200000" d="M442.68,-353.52C449.08,-355.74 455.39,-359.06 460,-364 469.42,-374.09 458.32,-384.17 468,-394 470.24,-396.28 472.8,-398.21 475.55,-399.86"/>
<polygon fill="#000000" fill-opacity="0.200000" stroke="#000000" stroke-width="2" stroke-opacity="0.200000" points="474.18,-401.53 480.5,-402.26 476.02,-397.75 474.18,-401.53"/>
</g>
<!-- src/ui/components/composites/AboutComp.js -->
<g id="node23" class="node">
<title>src/ui/components/composites/AboutComp.js</title>
<g id="a_node23"><a xlink:href="src/ui/components/composites/AboutComp.js" xlink:title="AboutComp.js">
<path fill="#ffffcc" stroke="black" d="M446.08,-237.88C446.08,-237.88 384.17,-237.88 384.17,-237.88 381.21,-237.88 378.25,-234.92 378.25,-231.96 378.25,-231.96 378.25,-226.04 378.25,-226.04 378.25,-223.08 381.21,-220.12 384.17,-220.12 384.17,-220.12 446.08,-220.12 446.08,-220.12 449.04,-220.12 452,-223.08 452,-226.04 452,-226.04 452,-231.96 452,-231.96 452,-234.92 449.04,-237.88 446.08,-237.88"/>
<text xml:space="preserve" text-anchor="start" x="386.25" y="-225.32" font-family="Helvetica,sans-Serif" font-size="9.00">AboutComp.js</text>
</a>
</g>
</g>
<!-- src/ui/pages/About.js&#45;&gt;src/ui/components/composites/AboutComp.js -->
<g id="edge20" class="edge">
<title>src/ui/pages/About.js&#45;&gt;src/ui/components/composites/AboutComp.js</title>
<path fill="none" stroke="#000000" stroke-width="2" stroke-opacity="0.200000" d="M342.22,-137.04C346.81,-139.18 351.11,-142.08 354.25,-146 369.13,-164.61 348.84,-179.31 362.25,-199 366.85,-205.76 373.52,-211.19 380.55,-215.48"/>
<polygon fill="#000000" fill-opacity="0.200000" stroke="#000000" stroke-width="2" stroke-opacity="0.200000" points="379.31,-217.19 385.58,-218.24 381.32,-213.51 379.31,-217.19"/>
</g>
<!-- src/ui/pages/Home.js&#45;&gt;src/ui/components/composites/AboutComp.js -->
<g id="edge21" class="edge">
<title>src/ui/pages/Home.js&#45;&gt;src/ui/components/composites/AboutComp.js</title>
<path fill="none" stroke="#000000" stroke-width="2" stroke-opacity="0.200000" d="M326.08,-170.26C335.26,-178.28 349.21,-189.99 362.25,-199 370.55,-204.74 380.01,-210.43 388.56,-215.3"/>
<polygon fill="#000000" fill-opacity="0.200000" stroke="#000000" stroke-width="2" stroke-opacity="0.200000" points="387.5,-217.11 393.76,-218.2 389.55,-213.44 387.5,-217.11"/>
</g>
<!-- src/ui/components/composites/Hero.js -->
<g id="node24" class="node">
<title>src/ui/components/composites/Hero.js</title>
<g id="a_node24"><a xlink:href="src/ui/components/composites/Hero.js" xlink:title="Hero.js">
<path fill="#ffffcc" stroke="black" d="M436.21,-267.88C436.21,-267.88 394.04,-267.88 394.04,-267.88 391.08,-267.88 388.12,-264.92 388.12,-261.96 388.12,-261.96 388.12,-256.04 388.12,-256.04 388.12,-253.08 391.08,-250.12 394.04,-250.12 394.04,-250.12 436.21,-250.12 436.21,-250.12 439.17,-250.12 442.12,-253.08 442.12,-256.04 442.12,-256.04 442.12,-261.96 442.12,-261.96 442.12,-264.92 439.17,-267.88 436.21,-267.88"/>
<text xml:space="preserve" text-anchor="start" x="400.5" y="-255.32" font-family="Helvetica,sans-Serif" font-size="9.00">Hero.js</text>
</a>
</g>
</g>
<!-- src/ui/pages/Home.js&#45;&gt;src/ui/components/composites/Hero.js -->
<g id="edge22" class="edge">
<title>src/ui/pages/Home.js&#45;&gt;src/ui/components/composites/Hero.js</title>
<path fill="none" stroke="#000000" stroke-width="2" stroke-opacity="0.200000" d="M318.36,-170.27C323.67,-187.46 337.41,-224.29 362.25,-244 367.25,-247.97 373.26,-250.88 379.38,-253.03"/>
<polygon fill="#000000" fill-opacity="0.200000" stroke="#000000" stroke-width="2" stroke-opacity="0.200000" points="378.48,-254.95 384.82,-254.64 379.67,-250.92 378.48,-254.95"/>
</g>
<!-- src/ui/components/composites/Highlight.js -->
<g id="node25" class="node">
<title>src/ui/components/composites/Highlight.js</title>
<g id="a_node25"><a xlink:href="src/ui/components/composites/Highlight.js" xlink:title="Highlight.js">
<path fill="#ffffcc" stroke="black" d="M440.08,-297.88C440.08,-297.88 390.17,-297.88 390.17,-297.88 387.21,-297.88 384.25,-294.92 384.25,-291.96 384.25,-291.96 384.25,-286.04 384.25,-286.04 384.25,-283.08 387.21,-280.12 390.17,-280.12 390.17,-280.12 440.08,-280.12 440.08,-280.12 443.04,-280.12 446,-283.08 446,-286.04 446,-286.04 446,-291.96 446,-291.96 446,-294.92 443.04,-297.88 440.08,-297.88"/>
<text xml:space="preserve" text-anchor="start" x="392.25" y="-285.32" font-family="Helvetica,sans-Serif" font-size="9.00">Highlight.js</text>
</a>
</g>
</g>
<!-- src/ui/pages/Home.js&#45;&gt;src/ui/components/composites/Highlight.js -->
<g id="edge23" class="edge">
<title>src/ui/pages/Home.js&#45;&gt;src/ui/components/composites/Highlight.js</title>
<g id="a_edge23"><a xlink:title="no&#45;circular">
<path fill="none" stroke="orange" stroke-width="2" d="M320.48,-170.25C328.25,-185.66 343.87,-217.71 354.25,-246 358.71,-258.15 353.11,-264.83 362.25,-274 363.71,-275.46 365.3,-276.78 366.98,-277.97"/>
<polygon fill="orange" stroke="orange" stroke-width="2" points="374.86,-283.84 381.19,-284.4 376.59,-280.01 374.86,-283.84"/>
<polyline fill="none" stroke="orange" stroke-width="2" points="374.81,-281.52 372.08,-280.28"/>
<ellipse fill="none" stroke="orange" stroke-width="2" cx="368.98" cy="-278.88" rx="2.4" ry="2.4"/>
</a>
</g>
<text xml:space="preserve" text-anchor="middle" x="326.05" y="-220.94" font-family="Helvetica,sans-Serif" font-size="9.00" fill="orange">no&#45;circular</text>
</g>
<!-- src/ui/components/composites/Review.js -->
<g id="node26" class="node">
<title>src/ui/components/composites/Review.js</title>
<g id="a_node26"><a xlink:href="src/ui/components/composites/Review.js" xlink:title="Review.js">
<path fill="#ffffcc" stroke="black" d="M436.71,-327.88C436.71,-327.88 393.54,-327.88 393.54,-327.88 390.58,-327.88 387.62,-324.92 387.62,-321.96 387.62,-321.96 387.62,-316.04 387.62,-316.04 387.62,-313.08 390.58,-310.12 393.54,-310.12 393.54,-310.12 436.71,-310.12 436.71,-310.12 439.67,-310.12 442.62,-313.08 442.62,-316.04 442.62,-316.04 442.62,-321.96 442.62,-321.96 442.62,-324.92 439.67,-327.88 436.71,-327.88"/>
<text xml:space="preserve" text-anchor="start" x="395.62" y="-315.32" font-family="Helvetica,sans-Serif" font-size="9.00">Review.js</text>
</a>
</g>
</g>
<!-- src/ui/pages/Home.js&#45;&gt;src/ui/components/composites/Review.js -->
<g id="edge24" class="edge">
<title>src/ui/pages/Home.js&#45;&gt;src/ui/components/composites/Review.js</title>
<g id="a_edge24"><a xlink:title="no&#45;circular">
<path fill="none" stroke="orange" stroke-width="2" d="M318.43,-170.02C327.56,-200.66 357.18,-299.1 362.25,-304 364.57,-306.24 367.2,-308.15 370.01,-309.78"/>
<polygon fill="orange" stroke="orange" stroke-width="2" points="378.13,-315.1 384.49,-315.27 379.62,-311.18 378.13,-315.1"/>
<polyline fill="none" stroke="orange" stroke-width="2" points="377.94,-312.79 375.14,-311.72"/>
<ellipse fill="none" stroke="orange" stroke-width="2" cx="371.96" cy="-310.52" rx="2.4" ry="2.4"/>
</a>
</g>
<text xml:space="preserve" text-anchor="middle" x="320.22" y="-248.2" font-family="Helvetica,sans-Serif" font-size="9.00" fill="orange">no&#45;circular</text>
</g>
<!-- src/ui/components/atomics/TextInput.js -->
<g id="node21" class="node">
<title>src/ui/components/atomics/TextInput.js</title>
<g id="a_node21"><a xlink:href="src/ui/components/atomics/TextInput.js" xlink:title="TextInput.js">
<path fill="#ffffcc" stroke="black" d="M546.83,-297.88C546.83,-297.88 496.92,-297.88 496.92,-297.88 493.96,-297.88 491,-294.92 491,-291.96 491,-291.96 491,-286.04 491,-286.04 491,-283.08 493.96,-280.12 496.92,-280.12 496.92,-280.12 546.83,-280.12 546.83,-280.12 549.79,-280.12 552.75,-283.08 552.75,-286.04 552.75,-286.04 552.75,-291.96 552.75,-291.96 552.75,-294.92 549.79,-297.88 546.83,-297.88"/>
<text xml:space="preserve" text-anchor="start" x="499" y="-285.32" font-family="Helvetica,sans-Serif" font-size="9.00">TextInput.js</text>
</a>
</g>
</g>
<!-- src/ui/pages/Login.js&#45;&gt;src/ui/components/atomics/TextInput.js -->
<g id="edge25" class="edge">
<title>src/ui/pages/Login.js&#45;&gt;src/ui/components/atomics/TextInput.js</title>
<path fill="none" stroke="#000000" stroke-width="2" stroke-opacity="0.200000" d="M342.15,-79.6C346.35,-81.43 350.53,-83.57 354.25,-86 358.46,-88.75 358.21,-91.01 362.25,-94 401.8,-123.27 433.36,-104.63 460,-146 475.43,-169.96 450.12,-251.81 468,-274 471.74,-278.64 476.81,-281.91 482.33,-284.2"/>
<polygon fill="#000000" fill-opacity="0.200000" stroke="#000000" stroke-width="2" stroke-opacity="0.200000" points="481.4,-286.11 487.76,-285.97 482.7,-282.12 481.4,-286.11"/>
</g>
<!-- src/ui/pages/Menu.js&#45;&gt;src/data/data.js -->
<g id="edge26" class="edge">
<title>src/ui/pages/Menu.js&#45;&gt;src/data/data.js</title>
<g id="a_edge26"><a xlink:title="no&#45;circular">
<path fill="none" stroke="orange" stroke-width="2" d="M391.81,-170.36C380.73,-174.51 367.01,-178.92 354.25,-181 317.46,-186.98 304.31,-185.87 261.89,-180.73"/>
<polygon fill="orange" stroke="orange" stroke-width="2" points="252.54,-177.48 246.33,-178.84 252.03,-181.65 252.54,-177.48"/>
<polyline fill="none" stroke="orange" stroke-width="2" points="253.28,-179.69 256.26,-180.05"/>
<ellipse fill="none" stroke="orange" stroke-width="2" cx="259.63" cy="-180.46" rx="2.4" ry="2.4"/>
</a>
</g>
<text xml:space="preserve" text-anchor="middle" x="339.94" y="-176.42" font-family="Helvetica,sans-Serif" font-size="9.00" fill="orange">no&#45;circular</text>
</g>
<!-- src/ui/components/atomics/Card.js -->
<g id="node16" class="node">
<title>src/ui/components/atomics/Card.js</title>
<g id="a_node16"><a xlink:href="src/ui/components/atomics/Card.js" xlink:title="Card.js">
<path fill="#ffffcc" stroke="black" d="M542.96,-357.88C542.96,-357.88 500.79,-357.88 500.79,-357.88 497.83,-357.88 494.88,-354.92 494.88,-351.96 494.88,-351.96 494.88,-346.04 494.88,-346.04 494.88,-343.08 497.83,-340.12 500.79,-340.12 500.79,-340.12 542.96,-340.12 542.96,-340.12 545.92,-340.12 548.88,-343.08 548.88,-346.04 548.88,-346.04 548.88,-351.96 548.88,-351.96 548.88,-354.92 545.92,-357.88 542.96,-357.88"/>
<text xml:space="preserve" text-anchor="start" x="507.25" y="-345.32" font-family="Helvetica,sans-Serif" font-size="9.00">Card.js</text>
</a>
</g>
</g>
<!-- src/ui/pages/Menu.js&#45;&gt;src/ui/components/atomics/Card.js -->
<g id="edge27" class="edge">
<title>src/ui/pages/Menu.js&#45;&gt;src/ui/components/atomics/Card.js</title>
<path fill="none" stroke="#000000" stroke-width="2" stroke-opacity="0.200000" d="M428.23,-170.17C438.7,-178.88 453.19,-193 460,-209 470.9,-234.61 450.52,-312.34 468,-334 472.61,-339.71 479.22,-343.34 486.22,-345.63"/>
<polygon fill="#000000" fill-opacity="0.200000" stroke="#000000" stroke-width="2" stroke-opacity="0.200000" points="485.24,-347.55 491.57,-347 486.28,-343.48 485.24,-347.55"/>
</g>
<!-- src/ui/pages/OrderOnline.js&#45;&gt;src/ui/pages/Menu.js -->
<g id="edge28" class="edge">
<title>src/ui/pages/OrderOnline.js&#45;&gt;src/ui/pages/Menu.js</title>
<g id="a_edge28"><a xlink:title="no&#45;circular">
<path fill="none" stroke="orange" stroke-width="2" d="M342.28,-110.23C346.38,-111.97 350.49,-113.91 354.25,-116 366.48,-122.81 379.01,-131.84 389.42,-140.03"/>
<polygon fill="orange" stroke="orange" stroke-width="2" points="395.39,-147.66 401.36,-149.84 398.06,-144.41 395.39,-147.66"/>
<polyline fill="none" stroke="orange" stroke-width="2" points="395.95,-145.4 393.64,-143.49"/>
<ellipse fill="none" stroke="orange" stroke-width="2" cx="391.01" cy="-141.34" rx="2.4" ry="2.4"/>
</a>
</g>
<text xml:space="preserve" text-anchor="middle" x="395.94" y="-120.12" font-family="Helvetica,sans-Serif" font-size="9.00" fill="orange">no&#45;circular</text>
</g>
<!-- src/ui/pages/Reservations.js&#45;&gt;src/data/data.js -->
<g id="edge29" class="edge">
<title>src/ui/pages/Reservations.js&#45;&gt;src/data/data.js</title>
<g id="a_edge29"><a xlink:title="no&#45;circular">
<path fill="none" stroke="orange" stroke-width="2" d="M274.99,-40.76C269.22,-42.86 263.72,-45.87 259.25,-50 232.93,-74.32 223.07,-116.4 219.4,-144.31"/>
<polygon fill="orange" stroke="orange" stroke-width="2" points="216.4,-153.52 217.9,-159.7 220.58,-153.93 216.4,-153.52"/>
<polyline fill="none" stroke="orange" stroke-width="2" points="218.58,-152.73 218.87,-149.74"/>
<ellipse fill="none" stroke="orange" stroke-width="2" cx="219.2" cy="-146.36" rx="2.4" ry="2.4"/>
</a>
</g>
<text xml:space="preserve" text-anchor="middle" x="208.94" y="-87.66" font-family="Helvetica,sans-Serif" font-size="9.00" fill="orange">no&#45;circular</text>
</g>
<!-- src/ui/components/atomics/MyDatePicker.js -->
<g id="node17" class="node">
<title>src/ui/components/atomics/MyDatePicker.js</title>
<g id="a_node17"><a xlink:href="src/ui/components/atomics/MyDatePicker.js" xlink:title="MyDatePicker.js">
<path fill="#ffffcc" stroke="black" d="M556.96,-237.88C556.96,-237.88 486.79,-237.88 486.79,-237.88 483.83,-237.88 480.88,-234.92 480.88,-231.96 480.88,-231.96 480.88,-226.04 480.88,-226.04 480.88,-223.08 483.83,-220.12 486.79,-220.12 486.79,-220.12 556.96,-220.12 556.96,-220.12 559.92,-220.12 562.88,-223.08 562.88,-226.04 562.88,-226.04 562.88,-231.96 562.88,-231.96 562.88,-234.92 559.92,-237.88 556.96,-237.88"/>
<text xml:space="preserve" text-anchor="start" x="488.88" y="-225.32" font-family="Helvetica,sans-Serif" font-size="9.00">MyDatePicker.js</text>
</a>
</g>
</g>
<!-- src/ui/pages/Reservations.js&#45;&gt;src/ui/components/atomics/MyDatePicker.js -->
<g id="edge30" class="edge">
<title>src/ui/pages/Reservations.js&#45;&gt;src/ui/components/atomics/MyDatePicker.js</title>
<path fill="none" stroke="#000000" stroke-width="2" stroke-opacity="0.200000" d="M354.45,-44.18C386.31,-48.69 430.82,-59.6 460,-86 497.56,-119.97 512.76,-181 518.21,-211.14"/>
<polygon fill="#000000" fill-opacity="0.200000" stroke="#000000" stroke-width="2" stroke-opacity="0.200000" points="516.09,-211.22 519.15,-216.79 520.23,-210.52 516.09,-211.22"/>
</g>
<!-- src/ui/components/atomics/Selector.js -->
<g id="node20" class="node">
<title>src/ui/components/atomics/Selector.js</title>
<g id="a_node20"><a xlink:href="src/ui/components/atomics/Selector.js" xlink:title="Selector.js">
<path fill="#ffffcc" stroke="black" d="M545.33,-267.88C545.33,-267.88 498.42,-267.88 498.42,-267.88 495.46,-267.88 492.5,-264.92 492.5,-261.96 492.5,-261.96 492.5,-256.04 492.5,-256.04 492.5,-253.08 495.46,-250.12 498.42,-250.12 498.42,-250.12 545.33,-250.12 545.33,-250.12 548.29,-250.12 551.25,-253.08 551.25,-256.04 551.25,-256.04 551.25,-261.96 551.25,-261.96 551.25,-264.92 548.29,-267.88 545.33,-267.88"/>
<text xml:space="preserve" text-anchor="start" x="500.5" y="-255.32" font-family="Helvetica,sans-Serif" font-size="9.00">Selector.js</text>
</a>
</g>
</g>
<!-- src/ui/pages/Reservations.js&#45;&gt;src/ui/components/atomics/Selector.js -->
<g id="edge31" class="edge">
<title>src/ui/pages/Reservations.js&#45;&gt;src/ui/components/atomics/Selector.js</title>
<path fill="none" stroke="#000000" stroke-width="2" stroke-opacity="0.200000" d="M345.92,-50.37C348.91,-51.98 351.75,-53.85 354.25,-56 359.68,-60.68 356.55,-65.66 362.25,-70 397.92,-97.17 431.56,-60.33 460,-95 481.03,-120.64 447.3,-218.09 468,-244 472.05,-249.07 477.69,-252.51 483.78,-254.82"/>
<polygon fill="#000000" fill-opacity="0.200000" stroke="#000000" stroke-width="2" stroke-opacity="0.200000" points="483.01,-256.78 489.36,-256.47 484.19,-252.75 483.01,-256.78"/>
</g>
<!-- src/index.css -->
<g id="node13" class="node">
<title>src/index.css</title>
<g id="a_node13"><a xlink:href="src/index.css" xlink:title="index.css">
<path fill="#ffffcc" stroke="black" d="M149.33,-417.88C149.33,-417.88 106.92,-417.88 106.92,-417.88 103.96,-417.88 101,-414.92 101,-411.96 101,-411.96 101,-406.04 101,-406.04 101,-403.08 103.96,-400.12 106.92,-400.12 106.92,-400.12 149.33,-400.12 149.33,-400.12 152.29,-400.12 155.25,-403.08 155.25,-406.04 155.25,-406.04 155.25,-411.96 155.25,-411.96 155.25,-414.92 152.29,-417.88 149.33,-417.88"/>
<text xml:space="preserve" text-anchor="start" x="109" y="-405.32" font-family="Helvetica,sans-Serif" font-size="9.00">index.css</text>
</a>
</g>
</g>
<!-- src/index.js -->
<g id="node14" class="node">
<title>src/index.js</title>
<g id="a_node14"><a xlink:href="src/index.js" xlink:title="index.js">
<path fill="#ffffcc" stroke="black" d="M64.08,-417.88C64.08,-417.88 21.92,-417.88 21.92,-417.88 18.96,-417.88 16,-414.92 16,-411.96 16,-411.96 16,-406.04 16,-406.04 16,-403.08 18.96,-400.12 21.92,-400.12 21.92,-400.12 64.08,-400.12 64.08,-400.12 67.04,-400.12 70,-403.08 70,-406.04 70,-406.04 70,-411.96 70,-411.96 70,-414.92 67.04,-417.88 64.08,-417.88"/>
<text xml:space="preserve" text-anchor="start" x="27.25" y="-405.32" font-family="Helvetica,sans-Serif" font-size="9.00">index.js</text>
</a>
</g>
</g>
<!-- src/index.js&#45;&gt;src/App.js -->
<g id="edge12" class="edge">
<title>src/index.js&#45;&gt;src/App.js</title>
<path fill="none" stroke="#000000" stroke-width="2" stroke-opacity="0.200000" d="M67.87,-399.65C72.86,-397.74 78.09,-395.78 83,-394 86.07,-392.89 89.27,-391.75 92.48,-390.63"/>
<polygon fill="#000000" fill-opacity="0.200000" stroke="#000000" stroke-width="2" stroke-opacity="0.200000" points="93.09,-392.64 98.07,-388.7 91.71,-388.67 93.09,-392.64"/>
</g>
<!-- src/index.js&#45;&gt;src/index.css -->
<g id="edge13" class="edge">
<title>src/index.js&#45;&gt;src/index.css</title>
<path fill="none" stroke="#000000" stroke-width="2" stroke-opacity="0.200000" d="M70.3,-409C77.12,-409 84.58,-409 91.79,-409"/>
<polygon fill="#000000" fill-opacity="0.200000" stroke="#000000" stroke-width="2" stroke-opacity="0.200000" points="91.68,-411.1 97.68,-409 91.68,-406.9 91.68,-411.1"/>
</g>
<!-- src/reportWebVitals.js -->
<g id="node15" class="node">
<title>src/reportWebVitals.js</title>
<g id="a_node15"><a xlink:href="src/reportWebVitals.js" xlink:title="reportWebVitals.js">
<path fill="#ffffcc" stroke="black" d="M167.33,-447.88C167.33,-447.88 88.92,-447.88 88.92,-447.88 85.96,-447.88 83,-444.92 83,-441.96 83,-441.96 83,-436.04 83,-436.04 83,-433.08 85.96,-430.12 88.92,-430.12 88.92,-430.12 167.33,-430.12 167.33,-430.12 170.29,-430.12 173.25,-433.08 173.25,-436.04 173.25,-436.04 173.25,-441.96 173.25,-441.96 173.25,-444.92 170.29,-447.88 167.33,-447.88"/>
<text xml:space="preserve" text-anchor="start" x="91" y="-435.32" font-family="Helvetica,sans-Serif" font-size="9.00">reportWebVitals.js</text>
</a>
</g>
</g>
<!-- src/index.js&#45;&gt;src/reportWebVitals.js -->
<g id="edge14" class="edge">
<title>src/index.js&#45;&gt;src/reportWebVitals.js</title>
<path fill="none" stroke="#000000" stroke-width="2" stroke-opacity="0.200000" d="M67.87,-418.35C72.86,-420.26 78.09,-422.22 83,-424 85.51,-424.91 88.1,-425.83 90.71,-426.75"/>
<polygon fill="#000000" fill-opacity="0.200000" stroke="#000000" stroke-width="2" stroke-opacity="0.200000" points="89.84,-428.67 96.2,-428.65 91.22,-424.7 89.84,-428.67"/>
</g>
<!-- src/ui/components/atomics/Rating.js -->
<g id="node18" class="node">
<title>src/ui/components/atomics/Rating.js</title>
<g id="a_node18"><a xlink:href="src/ui/components/atomics/Rating.js" xlink:title="no&#45;orphans">
<path fill="#ccffcc" stroke="orange" d="M542.96,-327.88C542.96,-327.88 500.79,-327.88 500.79,-327.88 497.83,-327.88 494.88,-324.92 494.88,-321.96 494.88,-321.96 494.88,-316.04 494.88,-316.04 494.88,-313.08 497.83,-310.12 500.79,-310.12 500.79,-310.12 542.96,-310.12 542.96,-310.12 545.92,-310.12 548.88,-313.08 548.88,-316.04 548.88,-316.04 548.88,-321.96 548.88,-321.96 548.88,-324.92 545.92,-327.88 542.96,-327.88"/>
<text xml:space="preserve" text-anchor="start" x="503.88" y="-315.32" font-family="Helvetica,sans-Serif" font-size="9.00" fill="orange">Rating.js</text>
</a>
</g>
</g>
<!-- src/ui/components/atomics/ReviewCard.js -->
<g id="node19" class="node">
<title>src/ui/components/atomics/ReviewCard.js</title>
<g id="a_node19"><a xlink:href="src/ui/components/atomics/ReviewCard.js" xlink:title="ReviewCard.js">
<path fill="#ffffcc" stroke="black" d="M553.96,-387.88C553.96,-387.88 489.79,-387.88 489.79,-387.88 486.83,-387.88 483.88,-384.92 483.88,-381.96 483.88,-381.96 483.88,-376.04 483.88,-376.04 483.88,-373.08 486.83,-370.12 489.79,-370.12 489.79,-370.12 553.96,-370.12 553.96,-370.12 556.92,-370.12 559.88,-373.08 559.88,-376.04 559.88,-376.04 559.88,-381.96 559.88,-381.96 559.88,-384.92 556.92,-387.88 553.96,-387.88"/>
<text xml:space="preserve" text-anchor="start" x="491.88" y="-375.32" font-family="Helvetica,sans-Serif" font-size="9.00">ReviewCard.js</text>
</a>
</g>
</g>
<!-- src/ui/components/composites/Highlight.js&#45;&gt;src/data/data.js -->
<g id="edge16" class="edge">
<title>src/ui/components/composites/Highlight.js&#45;&gt;src/data/data.js</title>
<g id="a_edge16"><a xlink:title="no&#45;circular">
<path fill="none" stroke="orange" stroke-width="2" d="M383.83,-282.16C376.58,-280 368.99,-277.3 362.25,-274 311.39,-249.09 297.03,-241.19 259.25,-199 257.61,-197.16 256.79,-195.49 255.89,-193.68"/>
<polygon fill="orange" stroke="orange" stroke-width="2" points="251.14,-185.22 245.57,-182.15 248.01,-188.02 251.14,-185.22"/>
<polyline fill="none" stroke="orange" stroke-width="2" points="250.24,-187.36 252.24,-189.6"/>
<ellipse fill="none" stroke="orange" stroke-width="2" cx="254.51" cy="-192.13" rx="2.4" ry="2.4"/>
</a>
</g>
<text xml:space="preserve" text-anchor="middle" x="283.41" y="-233.94" font-family="Helvetica,sans-Serif" font-size="9.00" fill="orange">no&#45;circular</text>
</g>
<!-- src/ui/components/composites/Highlight.js&#45;&gt;src/ui/components/atomics/Card.js -->
<g id="edge17" class="edge">
<title>src/ui/components/composites/Highlight.js&#45;&gt;src/ui/components/atomics/Card.js</title>
<path fill="none" stroke="#000000" stroke-width="2" stroke-opacity="0.200000" d="M446.31,-294.91C451.42,-297.06 456.26,-300 460,-304 469.42,-314.09 458.32,-324.17 468,-334 472.89,-338.97 479.31,-342.33 485.97,-344.59"/>
<polygon fill="#000000" fill-opacity="0.200000" stroke="#000000" stroke-width="2" stroke-opacity="0.200000" points="485.19,-346.55 491.53,-346.1 486.29,-342.5 485.19,-346.55"/>
</g>
<!-- src/ui/components/composites/Review.js&#45;&gt;src/data/data.js -->
<g id="edge18" class="edge">
<title>src/ui/components/composites/Review.js&#45;&gt;src/data/data.js</title>
<g id="a_edge18"><a xlink:title="no&#45;circular">
<path fill="none" stroke="orange" stroke-width="2" d="M387.39,-313.66C379.03,-311.37 369.98,-308.23 362.25,-304 358.1,-301.73 358.05,-299.81 354.25,-297 314.3,-267.43 286.59,-279.51 259.25,-238 249.22,-222.77 258.61,-210.67 253.47,-194.7"/>
<polygon fill="orange" stroke="orange" stroke-width="2" points="250.19,-185.33 245.27,-181.31 246.61,-187.53 250.19,-185.33"/>
<polyline fill="none" stroke="orange" stroke-width="2" points="248.93,-187.28 250.49,-189.84"/>
<ellipse fill="none" stroke="orange" stroke-width="2" cx="252.27" cy="-192.74" rx="2.4" ry="2.4"/>
</a>
</g>
<text xml:space="preserve" text-anchor="middle" x="280.23" y="-263.41" font-family="Helvetica,sans-Serif" font-size="9.00" fill="orange">no&#45;circular</text>
</g>
<!-- src/ui/components/composites/Review.js&#45;&gt;src/ui/components/atomics/ReviewCard.js -->
<g id="edge19" class="edge">
<title>src/ui/components/composites/Review.js&#45;&gt;src/ui/components/atomics/ReviewCard.js</title>
<path fill="none" stroke="#000000" stroke-width="2" stroke-opacity="0.200000" d="M442.68,-323.52C449.08,-325.74 455.39,-329.06 460,-334 469.42,-344.09 458.32,-354.17 468,-364 470.28,-366.31 472.88,-368.27 475.68,-369.94"/>
<polygon fill="#000000" fill-opacity="0.200000" stroke="#000000" stroke-width="2" stroke-opacity="0.200000" points="474.44,-371.67 480.76,-372.38 476.26,-367.89 474.44,-371.67"/>
</g>
</g>
</svg>
